<?xml version="1.0" encoding="UTF-8"?>
<svg id="Layer_2" data-name="Layer 2" xmlns="http://www.w3.org/2000/svg" viewBox="0 0 3379.67 2594.49">
  <defs>
    <style>
      .cls-1 {
        fill: #cfaca5;
      }

      .cls-2 {
        fill: #c19999;
      }

      .cls-3 {
        fill: #650000;
      }

      .cls-4 {
        fill: #fcc59c;
      }

      .cls-5 {
        fill: #9d5a40;
      }

      .cls-6 {
        fill: #ffdda7;
      }

      .cls-7 {
        fill: #fa2;
      }

      .cls-8 {
        fill: #f5b945;
      }

      .cls-9 {
        fill: #d5b8ac;
      }

      .cls-10 {
        fill: #6b0c11;
      }

      .cls-11 {
        fill: #dfc7c1;
      }

      .cls-12 {
        fill: #ad6f44;
      }

      .cls-13 {
        fill: #974d2f;
      }

      .cls-14 {
        fill: #be9577;
      }

      .cls-15 {
        fill: #cea391;
      }

      .cls-16 {
        fill: #a97464;
      }

      .cls-17 {
        fill: #d09a75;
      }

      .cls-18 {
        fill: #fdfffe;
      }

      .cls-19 {
        fill: #fcefdc;
      }

      .cls-20 {
        fill: #ebdad3;
      }

      .cls-21 {
        fill: #b05311;
      }

      .cls-22 {
        fill: #fbead0;
      }

      .cls-23 {
        fill: #d07718;
      }

      .cls-24 {
        fill: #fdf7ec;
      }

      .cls-25 {
        fill: #dec5b4;
      }

      .cls-26 {
        fill: #ffbf59;
      }
    </style>
  </defs>
  <g id="svg1">
    <g id="g1">
      <g id="group-R5">
        <path id="path3" class="cls-22" d="M2968.93,1983.47c0,322.75-658.65,584.36-1471.12,584.36S26.7,2306.21,26.7,1983.47c0-129.36,105.83-248.91,284.94-345.64,40.91-22.13,85.6-43.05,133.72-62.59,267.11-108.68,640-176.15,1052.45-176.15,142.76,0,280.84,8.09,411.33,23.21,476.95,55,853.87,203.44,997.2,392.04,40.71,53.55,62.59,110.32,62.59,169.12"/>
        <path id="path4" class="cls-3" d="M1497.81,1402.43c-399.09,0-772.41,62.47-1051.2,175.89-47.8,19.41-92.68,40.41-133.39,62.44-185.27,100.05-283.19,218.56-283.19,342.71,0,320.37,658.45,581.03,1467.78,581.03s1467.79-260.65,1467.79-581.03c0-56.85-20.83-113.08-61.91-167.11-69.99-92.09-198.65-176.83-372.07-245.04-173.87-68.39-389.24-118.77-622.87-145.71-132.8-15.39-271.07-23.19-410.95-23.19M1497.81,2571.16c-393.36,0-763.23-60.87-1041.47-171.39-279.21-110.91-432.98-258.76-432.98-416.31,0-126.75,99.14-247.28,286.69-348.57,40.93-22.13,86.03-43.25,134.05-62.75,279.55-113.75,653.77-176.39,1053.71-176.39,140.13,0,278.65,7.83,411.71,23.23,480.8,55.45,854.44,202.49,999.48,393.33,41.99,55.23,63.27,112.8,63.27,171.15,0,157.55-153.77,305.4-432.99,416.31-278.24,110.52-648.11,171.39-1041.47,171.39"/>
        <path id="path5" class="cls-24" d="M269.53,2273.64c-139.44-87.57-216.2-188.68-216.2-290.16s84.13-212.12,236.32-302.44c-5.89,13.79-12.16,30.48-17.64,49.51-108.14,81.33-169.38,174.07-169.38,272.51s60.3,189.68,166.9,270.59"/>
        <path id="path6" class="cls-3" d="M1497.81,1425.8c-389.67,0-755.6,60.11-1030.41,169.27-263.15,104.52-414.07,246.09-414.07,388.41s150.92,283.88,414.07,388.41c274.81,109.15,640.75,169.27,1030.41,169.27s755.61-60.12,1030.43-169.27c263.13-104.53,414.05-246.09,414.05-388.41s-150.92-283.89-414.05-388.41c-274.81-109.16-640.76-169.27-1030.43-169.27M1497.81,2594.49c-396.25,0-769.17-61.45-1050.11-173.04C159,2306.77,0,2151.23,0,1983.48s159-323.31,447.71-437.99c280.93-111.59,653.85-173.03,1050.11-173.03s769.19,61.44,1050.11,173.03c288.71,114.68,447.71,270.23,447.71,437.99s-159,323.29-447.71,437.97c-280.92,111.59-653.85,173.04-1050.11,173.04"/>
        <path id="path7" class="cls-3" d="M1493.6,1643.11c-282.07,0-546.96,41.61-745.88,117.16-190.03,72.16-299,169.59-299,267.28s108.97,195.11,299,267.28c198.92,75.55,463.81,117.15,745.88,117.15s546.97-41.6,745.88-117.15c190.03-72.17,299-169.59,299-267.28s-108.97-195.12-299-267.28c-198.91-75.55-463.8-117.16-745.88-117.16M1493.6,2451.97c-286.8,0-556.75-42.53-760.09-119.76-209.44-79.55-324.79-187.75-324.79-304.67s115.35-225.13,324.79-304.68c203.35-77.23,473.29-119.76,760.09-119.76s556.75,42.53,760.09,119.76c209.44,79.55,324.79,187.75,324.79,304.68s-115.35,225.12-324.79,304.67c-203.35,77.23-473.28,119.76-760.09,119.76"/>
        <path id="path8" class="cls-15" d="M1159.45,2363.36l50.47-53.89c29.17-21.49,54.53-48,74.13-79.16l43.19-46.12c-5.99-1.77-11.93-3.59-17.79-5.43,5.91-16.08,10.47-33.04,13.48-50.87,57.47,7.57,115.87,11.41,174.88,11.41,320.95,0,622.92-113.64,864.55-322.81,107.19,59.49,169.15,128.89,175.57,198.96-274.24,162.52-562.51,223.11-814.37,223.11-112.52,0-217.75-12.08-311.28-32.56,22.69,52.73-73.65,132.39-252.83,157.36M2575.28,1993.96c-14.36-74.92-76.77-145.32-181.32-205.69,25.83-23.79,50.91-48.71,75.2-74.73,16.23-17.39,32.04-35.23,47.4-53.44,28.59,2.97,56.83,4.45,84.73,4.45h.11c23.59,0,46.91-1.05,69.96-3.15,93.57,50.77,164.87,107.11,210.79,166.08l-306.87,166.48"/>
        <path id="path9" class="cls-3" d="M2882.15,1827.48c-45.92-58.97-117.21-115.31-210.79-166.08,15.09-1.37,30.07-3.2,44.92-5.45,82.19,48.16,146.79,101.45,190.07,158.4l-24.2,13.13"/>
        <path id="path10" class="cls-3" d="M2537.93,2015.45c-6.43-70.07-68.39-139.47-175.57-198.96,10.64-9.23,21.19-18.64,31.6-28.23,104.55,60.37,166.96,130.77,181.32,205.69l-16.79,9.09c-6.85,4.21-13.69,8.33-20.56,12.4"/>
        <path id="path11" class="cls-7" d="M3217.47,1300.21c-8.67,12.33-17.52,24.28-26.56,35.85-34.84,44.89-71.95,84.47-111.01,118.99-24.35,21.49-49.51,41.03-75.24,58.67-1.64,1.13-3.28,2.28-4.93,3.35-144.59,97.17-309.53,133.84-478.47,116.65-5.37-.45-10.68-1.08-16.05-1.71l13.84-20.55,143.08-212.37c70.93.95,137.69-19.97,197.19-55.19,24.47-14.41,47.73-31.29,69.55-50.01,14.67-12.64,28.64-26.11,41.92-40.2,173.35-184.36,225.57-486.44,13.21-553.2-2.53-.76-5.07-1.52-7.65-2.21-30.09-8.47-65.19-12.39-105.71-10.81l11.57-225.39c59.8-7.59,118.47-2.21,172.97,14.35,53.87,16.32,103.61,43.57,146.48,80.11,166.35,141.49,228.11,421.95,15.81,743.68"/>
        <path id="path12" class="cls-6" d="M2941.43,1322.77c-.55-1.15-1.09-2.29-1.64-3.45,57.67-48.24,104.24-107.24,137.12-164.72,81.43-142.31,95.88-290.31,37.73-386.27-15.45-25.52-39.69-53.15-77.43-74.05,1.23.36,2.45.72,3.67,1.09,212.36,66.76,160.15,368.84-13.21,553.19-13.28,14.11-27.25,27.57-41.92,40.21-14.17,12.17-28.97,23.56-44.32,34"/>
        <path id="path13" class="cls-7" d="M2882.32,443.43c0,2225.61-2769.01,2225.61-2769.01,0C113.31,213.24,733.21,26.67,1497.81,26.67s1384.51,186.57,1384.51,416.76"/>
        <path id="path14" class="cls-22" d="M2861.59,700.11l-12.91,84.53c0,725.35-2710.14,725.35-2710.14,0l-11.32-111.96c130.94,642.2,2538.63,651.37,2734.36,27.43"/>
        <path id="path15" class="cls-23" d="M2637.44,510.43c-149.95-140.87-611.35-237.72-1143.85-237.72s-988.81,96-1141.23,235.28c-9.89-14.73-16.17-30.95-16.04-47.83-.45-11.25,2.11-22.52,6.72-33.43,35.36-64.4,145.24-115.95,145.24-115.95,338.27-99.85,678.99-148.73,1022.21-148.73,320.88,0,643.93,42.73,968.97,126.51,24.75,14.16,49.11,28.43,72.33,43.81,12.52,8.65,24.89,17.33,36.48,26.69,5.77,4.72,11.51,9.44,16.75,14.55,5.61,4.79,10.49,10.09,15.56,15.21,9.6,10.61,17.85,21.96,24.13,33.64,5.99,11.8,9.47,24,9.83,36.09,1.05,17.88-5.77,35.64-17.11,51.87"/>
        <path id="path16" class="cls-6" d="M553.25,1666.08c-162.48-177.75-290.31-413.73-358.57-711.17,13.95,19.79,30.36,38.8,48.99,57.01,63.73,262.36,174.2,479.13,315.13,650.32-1.85,1.25-3.71,2.53-5.55,3.84M207.15,822.65c-18.77-20.69-34.73-42.33-47.58-64.92-12.82-98.91-19.59-203.68-19.59-314.31,0-188.39,545.61-390.09,1357.83-390.09,131.37,0,255.76,5.28,372,14.92-97.36-6.53-198.56-9.97-302.45-9.97-764.61,0-1384.51,186.57-1384.51,416.76,0,122.61,8.41,238.51,24.29,347.61"/>
        <path id="path17" class="cls-24" d="M243.67,1011.92c-18.63-18.21-35.04-37.23-48.99-57.01-14.47-62.99-26.23-128.63-35.11-197.17,12.85,22.59,28.81,44.23,47.58,64.92,9.55,65.53,21.79,128.6,36.52,189.27"/>
        <path id="path18" class="cls-8" d="M121.66,617.29l5.56,55.39c-3.67-17.96-5.56-36.43-5.56-55.39"/>
        <path id="path19" class="cls-3" d="M123.96,673.35c-3.74-18.31-5.63-37.16-5.63-56.05l6.65-.33,5.57,55.39-6.58,1"/>
        <path id="path20" class="cls-3" d="M1497.81,53.33c-812.23,0-1357.83,201.71-1357.83,390.09,0,1128.55,703.86,1642.55,1357.83,1642.55s1357.84-514,1357.84-1642.55c0-188.39-545.61-390.09-1357.84-390.09M1497.81,2139.31c-370.17,0-715.13-151.21-971.33-425.77C238.73,1405.17,86.65,965.97,86.65,443.43c0-124.11,150.75-237.83,424.5-320.23C775.07,43.76,1125.47,0,1497.81,0s722.75,43.76,986.67,123.2c273.75,82.4,424.51,196.12,424.51,320.23,0,522.55-152.09,961.75-439.83,1270.11-256.2,274.56-601.16,425.77-971.35,425.77"/>
        <path id="path21" class="cls-12" d="M2639.17,541.04v.07c-13.72,14.85-31.17,29.33-52.11,43.31-175.88,117.53-597.32,200.23-1089.25,200.23-33,0-65.75-.37-98.05-1.13-449.39-10.12-827.13-89.47-991.2-199.09l-.12-.07c-14.67-9.79-27.63-19.84-38.76-30.09-8.6-8.79-14.29-14.72-16.51-16.93-.25-.25-.44-.51-.56-.57-.25-.32-.39-.44-.39-.44,96.55-105.33,382.19-190.05,752.23-225.52,121.83-11.69,252.76-18.08,389.13-18.08,556.85,0,1023.37,105.96,1145.59,248.33"/>
        <path id="path22" class="cls-3" d="M2639.16,561.08c-6.47,0-12.21-3.07-15.87-7.81-121.16-139.44-595.77-240.56-1129.71-240.56s-989.12,97.31-1121.87,232.12c-.96,2.37-2.4,4.6-4.31,6.53-7.77,7.87-20.43,7.95-28.28.19-.09-.09-.23-.21-.36-.36-.55-.52-1.07-1.08-1.56-1.67-6.71-7.61-6.67-19.16.28-26.73,135-147.24,610.4-250.08,1156.09-250.08s1031.73,104.99,1160.76,255.31c3.11,3.63,4.83,8.25,4.83,13.03,0,11.05-8.96,20.04-20.01,20.04"/>
        <path id="path23" class="cls-26" d="M914.8,1483.16c-3.27,0-6.59-.21-9.93-.65l-190.16-24.61c-60.45-7.83-113.47-44.36-142.03-98.21-30.65-57.81-57.68-125.84-80.76-194.11,134.72,56.37,299.35,98.15,478.36,125.29,4.72,34.39,10.75,68.32,17.91,100.65,10.56,47.71-26.2,91.64-73.39,91.64M958.52,1122.31c-198.45-30.16-379.01-77.77-521.28-142.93-1.43-5.56-2.81-11.05-4.16-16.44-13.49-53.89,28.4-102.28,79.33-102.28,8.65,0,17.57,1.39,26.52,4.4,69.07,23.2,166.81,49.56,300.41,72.72,71.73,12.43,123.04,76.23,119.97,148.96-.49,11.64-.76,23.51-.8,35.57"/>
        <path id="path24" class="cls-19" d="M970.28,1290.87c-179.01-27.15-343.64-68.92-478.36-125.29-21.87-64.69-40.19-129.57-54.68-186.2,142.27,65.16,322.83,112.77,521.28,142.93-.2,54.12,4,111.97,11.76,168.56"/>
        <path id="path25" class="cls-26" d="M1015.21,1855.84c-13.51-5.97-26.64-12.53-39.39-19.57-34.24-93.89-107.87-166.17-213.12-207.39-5.95-2.65-12.01-4.92-18.2-6.81-9.55-22.95,7.49-49.81,33.41-49.81,1.35,0,2.72.07,4.12.23l165.96,17.81c42.63,4.59,78.04,34.93,89.08,76.35l41.39,155.19c3.4,12.77-.67,24.92-8.65,33.17-6.47-.27-13-.4-19.59-.4-11.51,0-23.2.4-35.01,1.24"/>
        <path id="path26" class="cls-3" d="M2601.4,1664.55c-32.69,0-65.83-2.01-99.43-6.09-14.61-1.77-25.03-15.07-23.25-29.68,1.77-14.63,15.03-25.09,29.68-23.27,273.53,33.15,517.53-80.59,687.04-320.33,147.61-223.91,172.16-448.88,67.35-617.27-80.83-129.85-225.4-198.56-377.24-179.33-14.59,1.84-27.95-8.49-29.8-23.11-1.85-14.61,8.49-27.96,23.11-29.81,172.77-21.89,337.25,56.32,429.21,204.07,53.59,86.08,77.87,189.77,70.23,299.85-8.51,122.6-55.13,248.88-138.56,375.33-.16.24-.32.47-.48.69-160.65,227.43-384.47,348.93-637.85,348.95"/>
        <path id="path27" class="cls-14" d="M1657.83,716.29c-82.69,8.85-143.39,42.68-159.88,81.31-16.44-38.63-77.2-72.45-159.89-81.31-233.55-35.77-434.91-70.55-415.31-212.68,62.4-175.05,505.77-180.17,575.2-17.25,69.41-162.92,512.85-157.8,575.19,17.25,19.6,142.13-181.76,176.91-415.31,212.68"/>
        <path id="path28" class="cls-3" d="M2666.84,1425.8c-1.69,0-3.37-.01-5.08-.04-14.73-.2-26.51-12.29-26.31-27.03.2-14.72,12.07-26.63,27.03-26.31,167.2,2.24,299.72-124.73,368.13-244.31,70.72-123.59,85.8-253.96,38.41-332.15-35.15-58.01-101.49-85.53-197.37-81.87-14.6.56-27.11-10.91-27.68-25.63-.56-14.72,10.91-27.11,25.63-27.67,145.24-5.57,213.45,55.37,245.04,107.52,58.15,95.96,43.69,243.96-37.73,386.27-75.28,131.57-222.27,271.19-410.07,271.2"/>
        <path id="path29" class="cls-18" d="M1497.95,774.56c40.51-91.88,315.09-109.85,463.31-184.85,39.36-19.92,61.79-53.16,53.13-86.39-30.21-116.09-400.47-139.43-516.44-16.97-115.96-122.45-486.21-99.12-516.44,16.97-8.64,33.23,13.79,66.47,53.15,86.39,148.21,75,422.8,92.97,463.29,184.85"/>
        <path id="path30" class="cls-4" d="M1493.6,533.21c-30.76-21.17-64.72-36.04-99.97-45.15-35.16-9.4-71.52-13.33-107.64-13.47-36.11.27-72.29,4.17-106.57,13.27-17.01,4.61-33.8,10.47-47.96,18.67-6.97,4.01-13.45,8.81-17.08,13.49-1.83,2.31-2.79,4.41-3.04,5.76-.23,1.39-.19,2.21.56,3.92.73,1.67,2.43,3.93,4.75,6.17,2.13,2.19,5.92,4.8,9.11,7.24,6.68,4.76,13.92,8.92,21.87,12.77,15.64,7.88,32.64,14.45,49.77,20.79,34.35,12.68,69.79,23.87,104.91,36.44,35.23,12.28,70.36,25.53,104.43,41.61,16.91,8.32,33.67,17.08,49.35,27.68,15.61,10.56,30.52,22.76,41.75,37.75-13.84-12.57-29.69-22.04-46.13-30.16-16.49-8.05-33.56-14.89-50.93-20.93-34.64-12.37-70.24-22.24-105.88-32.41-35.75-9.88-71.6-19.8-107.44-31.68-17.91-6.01-35.76-12.6-53.53-21.04-8.83-4.15-17.81-9.2-26.29-15.16-4.2-3.17-8.2-5.75-12.71-10.08-4.35-4.19-8.71-9.19-11.83-16.01-3.15-6.72-4.33-15.56-2.59-23.28,1.65-7.76,5.37-13.97,9.31-18.92,3.99-5,8.33-8.88,12.76-12.24,4.41-3.41,8.92-6.28,13.51-8.8,18.31-9.99,37.09-16.09,56.07-20.59,37.92-8.75,76.49-11.31,114.65-8.81,38.15,2.31,75.96,9.96,111.6,23.33,35.43,13.64,68.89,33.23,95.23,59.84"/>
        <path id="path31" class="cls-4" d="M1497.81,533.21c26.35-26.61,59.81-46.2,95.24-59.84,35.64-13.37,73.45-21.03,111.59-23.33,38.16-2.49,76.73.07,114.67,8.81,18.96,4.49,37.75,10.6,56.07,20.59,4.57,2.52,9.08,5.39,13.51,8.8,4.41,3.36,8.77,7.24,12.75,12.24,3.93,4.95,7.65,11.16,9.31,18.92,1.75,7.72.57,16.56-2.59,23.28-3.11,6.83-7.47,11.83-11.81,16.01-4.52,4.33-8.51,6.91-12.72,10.08-8.48,5.96-17.47,11.01-26.28,15.16-17.79,8.44-35.64,15.03-53.55,21.04-35.83,11.88-71.69,21.8-107.44,31.68-35.63,10.17-71.24,20.04-105.88,32.41-17.37,6.04-34.44,12.88-50.93,20.93-16.43,8.12-32.29,17.59-46.13,30.16,11.24-14.99,26.13-27.19,41.75-37.75,15.68-10.6,32.45-19.36,49.35-27.68,34.07-16.08,69.21-29.33,104.43-41.61,35.12-12.57,70.57-23.76,104.92-36.44,17.13-6.33,34.13-12.91,49.76-20.79,7.95-3.85,15.19-8.01,21.87-12.77,3.19-2.44,6.99-5.05,9.11-7.24,2.33-2.24,4.03-4.51,4.76-6.17.75-1.71.79-2.53.55-3.92-.25-1.35-1.21-3.45-3.04-5.76-3.63-4.68-10.11-9.48-17.07-13.49-14.17-8.2-30.95-14.05-47.96-18.67-34.28-9.09-70.48-13-106.59-13.27-36.12.13-72.47,4.07-107.64,13.47-35.25,9.11-69.2,23.97-99.97,45.15"/>
        <path id="path32" class="cls-4" d="M1495.69,564.63c-18.51-10.51-37.84-19.23-58.12-24.89-10.04-3.07-20.25-5.51-30.56-7.28-10.28-1.95-20.65-3.28-31.05-3.91-20.67-1.25-41.91-.76-61.12,4.91-4.75,1.41-9.33,3.19-13.32,5.48-3.87,2.33-7.08,5.29-8.17,8.2-2.59,5.39,3.44,13.63,10.87,19.75l-.48-.36c15.13,10.19,32.01,18.41,48.76,26.76,16.85,8.21,34.03,16,51.05,24.17,17.08,8.07,34.09,16.43,50.61,25.85,8.2,4.8,16.31,9.85,23.89,15.68,3.81,2.87,7.44,6.04,10.69,9.57,3.19,3.52,6.04,7.69,6.95,12.37-1.49-4.52-4.72-8.09-8.21-11.11-3.52-3.03-7.25-5.81-11.24-8.24-7.91-4.95-16.29-9.15-24.8-13.09-16.96-7.97-34.39-15.05-51.76-22.35-17.44-7.17-34.85-14.48-52.15-22.32-17.31-7.8-34.4-16.28-50.76-26.92l-.31-.19-.19-.17c-4.32-3.85-8.8-7.64-12.11-13.35-.91-1.29-1.64-2.79-2.21-4.48-.64-1.6-1.27-3.19-1.43-5.11-.28-1.84-.52-3.67-.15-5.6.15-1.93.55-3.79,1.37-5.48,2.95-7.01,8.45-11.13,13.57-14.23,5.25-2.97,10.68-4.95,16.12-6.52,21.84-5.83,43.88-5.63,65.41-3.37,21.55,2.37,42.68,7.52,62.79,15.21,20.03,7.83,39.16,18,56.04,31"/>
        <path id="path33" class="cls-4" d="M1495.69,564.63c16.89-13,36.03-23.17,56.05-31,20.09-7.69,41.24-12.84,62.79-15.21,21.53-2.25,43.57-2.45,65.41,3.37,5.44,1.57,10.87,3.55,16.12,6.52,5.12,3.09,10.63,7.21,13.57,14.23.83,1.69,1.23,3.55,1.37,5.48.37,1.93.13,3.76-.15,5.6-.16,1.92-.79,3.51-1.43,5.11-.57,1.69-1.31,3.19-2.21,4.48-3.31,5.71-7.79,9.49-12.11,13.35l-.19.17-.31.19c-16.36,10.64-33.45,19.12-50.76,26.92-17.29,7.84-34.72,15.15-52.15,22.32-17.37,7.29-34.8,14.37-51.77,22.35-8.49,3.95-16.88,8.15-24.79,13.09-3.99,2.43-7.72,5.21-11.24,8.24-3.49,3.01-6.72,6.59-8.23,11.11.92-4.68,3.77-8.85,6.96-12.37,3.25-3.53,6.88-6.71,10.69-9.57,7.59-5.83,15.68-10.88,23.89-15.68,16.52-9.43,33.53-17.79,50.61-25.85,17.03-8.17,34.2-15.96,51.05-24.17,16.75-8.35,33.63-16.57,48.76-26.76l-.48.36c7.41-6.12,13.45-14.36,10.87-19.75-1.09-2.91-4.31-5.87-8.17-8.2-3.99-2.29-8.57-4.07-13.32-5.48-19.21-5.67-40.45-6.16-61.12-4.91-10.4.63-20.77,1.96-31.05,3.91-10.31,1.77-20.52,4.21-30.56,7.28-20.28,5.67-39.61,14.39-58.13,24.89"/>
        <path id="path34" class="cls-4" d="M1235.44,503.61c-7.48,4.69-14.85,9.23-19.91,14.57-5.03,5.83-5,9.52-.93,15.27,4.08,5.55,10.35,10.97,16.77,16.15,6.49,5.21,13.33,10.32,19.88,16.45-8.84-1.39-17.21-4.17-25.19-8.12-7.89-4.05-15.75-8.95-21.84-17.25-2.83-4.13-5.4-9.99-4.37-16.39,1.16-6.32,5.27-10.93,9.35-13.61,8.28-5.49,17.29-7.31,26.24-7.07"/>
        <path id="path35" class="cls-3" d="M2474.87,278.93c30.39,8,60.16,18.61,88.91,32.29,7.13,3.55,14.31,7.08,21.39,10.85,6.88,4.15,14,7.88,20.73,12.43,13.75,8.57,26.88,18.52,39.17,29.84,12.08,11.61,23.72,24.39,32.8,39.77,8.99,15.37,15.25,33.51,16.36,52.45,1.6,18.92-2.87,38.12-10.33,54.69-7.55,16.68-17.99,31.09-29.43,43.81l5.47-14.03v.05c.05,5.35-1.97,10.23-5.32,13.88l-.19.21c-17.88,19.45-38.07,35.59-59.16,49.28l-32.09,19.65c-10.97,5.87-22.09,11.31-33.13,16.97-44.63,21.31-90.39,39.31-137.05,53.44-93.15,29.09-188.13,49.69-283.69,65.16-95.59,15.4-191.76,25.76-288.05,33.11-48.13,3.89-96.36,6.12-144.57,8.44l-72.37,2.11c-24.12.83-48.25.56-72.37.92-192.97,1.56-386.21-9.13-577.71-36.05-95.72-13.57-191.08-30.89-285.21-55.33l-35.21-9.49-34.91-10.89c-23.39-6.81-46.28-15.72-69.21-24.19-11.44-4.32-22.61-9.61-33.93-14.39l-16.89-7.41c-5.57-2.6-11.01-5.64-16.53-8.43l-16.48-8.57c-5.47-2.92-11.05-5.49-16.29-9l-31.72-20.01,10.75,3.25-.12-.07-10.75-3.25c-10.43-7.29-20.59-15.07-30.33-23.56-4.83-4.25-9.73-8.57-14.15-13.51l-13.45-14.43,2.79,2.6c-1.77-1.39-3.41-3.12-4.69-4.96l.89,1.21c.29.37.61.72.96,1.03l-.92-.97c-9.72-12-18.39-25.37-24.51-40.37-6.12-14.91-9.51-31.61-8.43-48.09.76-16.51,5.77-32.47,13.25-46.24,7.47-13.84,16.8-26.12,27.29-36.83,21.16-21.2,45.36-37.68,70.55-51.48,25.23-13.76,51.32-25.31,78.01-34.96,1.6-.59,3.36.24,3.93,1.84.52,1.45-.13,3.05-1.45,3.76-24.81,13.29-49.28,27.09-72.04,43.01-22.56,16.05-44.08,33.56-61.07,54-16.63,20.37-28.96,44.04-28.01,67.67-.17,23.57,12.15,45.88,29.35,64.6l-.91-.99c.6.61,1.17,1.25,1.72,1.91l.88,1.23c-.89-1.47-2.16-2.83-3.55-3.81l2.79,2.59,11.93,11.64c3.81,4,8.2,7.51,12.63,11.09,8.87,7.07,18.28,13.65,28.01,19.85l-10.73-3.25.12.05,10.75,3.27c78.79,47.77,169.63,78.17,260.79,103.37,91.48,25.32,185.31,43.41,279.76,56.92,189.05,26.57,380.56,37.21,571.76,35.65,23.89-.4,47.81-.29,71.69-1.2l71.67-2.43c47.72-2.53,95.47-4.95,143.07-9.03,95.23-7.69,190.12-19.11,284.09-35.03,93.91-16.04,187.21-36.03,277.4-64.52,22.73-6.69,44.71-15.09,66.89-22.96,11.23-3.69,21.73-8.77,32.63-13.13,10.75-4.61,21.79-8.75,32-14.2,10.36-5.21,20.88-10.21,31.13-15.56l29.59-17.57c19.41-12.03,37.23-25.97,52.13-41.63l-5.51,14.08v-.52c.05-5.24,2.15-10.04,5.47-13.57,19.08-20.27,32.11-44.24,30.68-68.45-.36-12.09-3.84-24.29-9.83-36.09-6.28-11.68-14.53-23.03-24.13-33.64-5.07-5.12-9.95-10.43-15.56-15.21-5.24-5.11-10.97-9.83-16.75-14.55-11.59-9.36-23.96-18.04-36.48-26.69-25.39-16.83-52.12-32.29-79.24-47.76-1.49-.84-2.01-2.72-1.17-4.21.69-1.24,2.15-1.8,3.48-1.47"/>
        <path id="path36" class="cls-14" d="M2105.09,449.13c12.85,3.21,24.72,9.23,36.09,16.4,11.16,7.45,21.71,16.56,30.12,28.31,8.36,11.63,14.53,26.2,15.59,41.99.99,15.8-3.59,31.45-10.69,44.45-14.84,26.03-37.35,42.99-60.23,56.11-23.2,12.92-47.83,21.96-73.59,26.87,20.19-16.81,40.71-31.52,59.49-47.33,18.69-15.65,36.2-32.36,46.63-50.88,5.11-9.23,8.12-18.72,8.48-28.44.24-9.73-2.28-19.87-6.92-30.01-9.61-20.31-26.41-39.27-44.97-57.45"/>
        <path id="path37" class="cls-14" d="M878.08,449.13c-18.56,18.19-35.36,37.15-44.97,57.45-4.64,10.15-7.16,20.28-6.92,30.01.36,9.72,3.37,19.21,8.48,28.44,10.43,18.52,27.93,35.23,46.63,50.88,18.79,15.81,39.31,30.52,59.49,47.33-25.76-4.91-50.39-13.95-73.59-26.87-22.88-13.12-45.39-30.08-60.23-56.11-7.11-13-11.68-28.65-10.69-44.45,1.05-15.79,7.23-30.36,15.6-41.99,8.4-11.75,18.95-20.85,30.11-28.31,11.37-7.17,23.24-13.19,36.09-16.4"/>
        <path id="path38" class="cls-14" d="M2482.19,519.89c0,10.73-22.68,19.43-50.65,19.43s-50.67-8.69-50.67-19.43,22.68-19.44,50.67-19.44,50.65,8.71,50.65,19.44"/>
        <path id="path39" class="cls-14" d="M589.61,533.21c0,10.72-22.69,19.43-50.67,19.43s-50.67-8.71-50.67-19.43,22.69-19.44,50.67-19.44,50.67,8.71,50.67,19.44"/>
        <path id="path40" class="cls-14" d="M2421.11,583.83c0,6.61-14.68,11.99-32.79,11.99s-32.77-5.37-32.77-11.99,14.67-12,32.77-12,32.79,5.37,32.79,12"/>
        <path id="path41" class="cls-14" d="M669.92,480.68c0,6.63-14.68,12-32.79,12s-32.77-5.37-32.77-12,14.68-12,32.77-12,32.79,5.37,32.79,12"/>
        <path id="path42" class="cls-14" d="M2347.35,540.89c0,3.4-8,6.16-17.88,6.16s-17.88-2.76-17.88-6.16,8-6.16,17.88-6.16,17.88,2.75,17.88,6.16"/>
        <path id="path43" class="cls-14" d="M692,554.17c0,4.2-9.89,7.61-22.08,7.61s-22.08-3.41-22.08-7.61,9.88-7.6,22.08-7.6,22.08,3.4,22.08,7.6"/>
        <path id="path44" class="cls-23" d="M1428.63,2081.64c-14.41,0-28.85-.24-43.25-.72-19.37-1.75-38.8-3.93-58.16-6.59-.03-5.49-.19-11.07-.49-16.69h0c-.23-4.12-.52-8.27-.89-12.48,497.61-94.51,805.88-352.23,882.61-790.32,224.05-51.09,411.44-128.68,524.51-232.85-201.39,706.41-752.79,1059.65-1304.32,1059.65M2226.08,1087.03c1.41-34.35,1.63-69.64.61-105.84-1.28-46.07,28.03-87.36,71.89-101.49,297.64-95.91,442.95-199.64,508.4-291.83h-.01c-5.97,86.47-16.36,169.12-30.79,248.08-111.71,113.29-310.08,196.96-550.11,251.08"/>
        <path id="path45" class="cls-15" d="M2208.44,1254.84c9.33-53.27,15.24-109.19,17.64-167.81,240.03-54.12,438.4-137.79,550.11-251.08-11.79,64.49-26.28,126.55-43.24,186.04-113.07,104.17-300.45,181.76-524.51,232.85"/>
        <path id="path46" class="cls-3" d="M1385.37,2080.92c-19.4-.65-38.8-1.73-58.16-3.27v-3.32c19.36,2.65,38.79,4.84,58.16,6.59"/>
        <path id="path47" class="cls-5" d="M1238.12,756.59c-93.12-5.81-185.99-14.99-278.27-27.96-94.45-13.51-188.28-31.6-279.76-56.92-91.16-25.2-182-55.6-260.79-103.37l-10.75-3.27-.12-.05,10.73,3.25c-9.73-6.2-19.15-12.79-28.01-19.85-4.25-3.44-8.47-6.81-12.17-10.61,96.41-89.13,340.33-161.07,647.28-198.01-528.59,180.35-363.25,312.69,211.85,416.8M669.92,546.57c-12.2,0-22.08,3.4-22.08,7.6s9.88,7.61,22.08,7.61,22.08-3.41,22.08-7.61-9.89-7.6-22.08-7.6M538.95,513.77c-27.97,0-50.67,8.71-50.67,19.44s22.69,19.43,50.67,19.43,50.67-8.71,50.67-19.43-22.69-19.44-50.67-19.44M637.13,468.68c-18.09,0-32.77,5.37-32.77,12s14.68,12,32.77,12,32.79-5.37,32.79-12-14.68-12-32.79-12"/>
        <path id="path48" class="cls-10" d="M378.99,537.8c-.16-.16-.31-.32-.45-.48l-11.93-11.64-.35-.32c-.32-.37-.65-.73-1-1.07-.07-.08-.13-.15-.21-.23-.09-.11-.2-.21-.29-.33,107.07-99.47,384.51-178.89,739.71-212.95l3.47,2.47c-28.88,8.96-56.05,17.8-81.65,26.53-306.95,36.95-550.87,108.88-647.28,198.01M367.36,526.91l-.88-1.23c-.16-.17-.31-.36-.47-.53l.24.21c.41.49.79,1.01,1.11,1.55M366.01,525.15l-1.39-1.29s.05-.05.07-.07c.15.13.29.27.44.4l.53.57c-.16-.17-.31-.35-.47-.52.01.01.03.04.05.05.25.28.51.56.76.85"/>
        <path id="path49" class="cls-10" d="M1399.76,783.51c-449.39-10.12-827.13-89.47-991.2-199.09l-.12-.07c-14.67-9.79-27.63-19.84-38.76-30.09-8.6-8.79-14.29-14.72-16.51-16.93-.25-.25-.44-.51-.56-.57-.25-.32-.39-.44-.39-.44,3.84-4.19,7.97-8.33,12.4-12.45l1.39,1.29c.16.17.31.36.47.53l.88,1.23c-.32-.53-.69-1.05-1.11-1.55l.35.32,11.93,11.64c.15.16.29.32.45.48,3.71,3.8,7.92,7.17,12.17,10.61,8.87,7.07,18.28,13.65,28.01,19.85l-10.73-3.25.12.05,10.75,3.27c78.79,47.77,169.63,78.17,260.79,103.37,91.48,25.32,185.31,43.41,279.76,56.92,92.28,12.97,185.15,22.15,278.27,27.96,50.75,9.19,104.71,18.16,161.64,26.92M366.25,525.36l-.24-.21c-.25-.29-.51-.57-.76-.85.35.33.68.69,1,1.07M365.67,524.76l-.53-.57c-.15-.13-.29-.27-.44-.4t.05-.05c.09.12.2.23.29.33.08.08.15.15.21.23-.03-.01-.04-.04-.05-.05.16.17.31.35.47.52"/>
        <path id="path50" class="cls-16" d="M538.95,552.64c-27.97,0-50.67-8.71-50.67-19.43s22.69-19.44,50.67-19.44,50.67,8.71,50.67,19.44-22.69,19.43-50.67,19.43"/>
        <path id="path51" class="cls-16" d="M637.13,492.68c-18.09,0-32.77-5.37-32.77-12s14.68-12,32.77-12,32.79,5.37,32.79,12-14.68,12-32.79,12"/>
        <path id="path52" class="cls-16" d="M669.92,561.79c-12.2,0-22.08-3.41-22.08-7.61s9.88-7.6,22.08-7.6,22.08,3.4,22.08,7.6-9.89,7.61-22.08,7.61"/>
        <path id="path53" class="cls-23" d="M2991.01,674.73c-25.77-8-55.92-13.17-91.16-14.12,4.89-56.96,7.83-115.05,8.79-174.29,9.12-.63,18.19-.95,27.23-.95,81.73,0,159.45,25.41,223.87,71.83-68.6,8.37-125.29,52.64-168.72,117.53"/>
        <path id="path54" class="cls-3" d="M2872,660.72l8.83-171.97c.44.03.89.04,1.35.04,1.12,0,2.24-.08,3.37-.21,7.72-.99,15.41-1.73,23.09-2.25-.96,59.24-3.89,117.33-8.79,174.29-3.93-.11-7.92-.16-11.97-.16-5.19,0-10.49.09-15.88.27"/>
        <path id="path55" class="cls-3" d="M3159.73,557.2c-64.41-46.41-142.13-71.83-223.87-71.83-9.04,0-18.11.32-27.23.95-7.68.52-15.37,1.27-23.09,2.25-1.13.13-2.25.21-3.37.21-.45,0-.91-.01-1.35-.04l1.37-26.67c17.87-2.27,35.63-3.37,53.21-3.37,41.28,0,81.55,6.11,119.76,17.72,53.87,16.32,103.61,43.57,146.48,80.11-6.08-.52-12.08-.79-17.99-.79-8.13,0-16.11.49-23.93,1.45"/>
        <path id="path56" class="cls-3" d="M2976.33,698.28c-25.72-7.24-55.08-11.16-88.36-11.16-5.67,0-11.45.12-17.35.35l1.37-26.75c5.39-.17,10.69-.27,15.88-.27,4.05,0,8.04.05,11.97.16,35.24.95,65.39,6.12,91.16,14.12-5.08,7.57-9.97,15.44-14.68,23.55"/>
        <path id="path57" class="cls-23" d="M2600.53,1611.15c-14.4,0-28.92-.43-43.51-1.27,44.45-57.77,84.85-119.28,121.09-184.25,87.84-2.63,166.45-35.68,232.6-83.64,1.83-1.05,3.67-2.12,5.48-3.2,8.56-5.04,16.97-10.39,25.23-16.01,26.31,54.44,62.92,97.2,110.48,120.95-129.13,109.88-283.33,167.43-451.37,167.43"/>
        <path id="path58" class="cls-17" d="M2910.72,1341.99c9.97-7.24,19.67-14.81,29.07-22.67.55,1.16,1.09,2.31,1.64,3.45-8.25,5.63-16.67,10.97-25.23,16.01-1.81,1.08-3.65,2.15-5.48,3.2"/>
        <path id="path59" class="cls-3" d="M2557.03,1609.88c-11.61-.68-23.28-1.63-35-2.84l125.19-185.83c4.16,2.81,9.16,4.48,14.55,4.55,1.71.03,3.39.04,5.08.04,3.77,0,7.55-.07,11.28-.17-36.24,64.97-76.64,126.48-121.09,184.25"/>
        <path id="path60" class="cls-3" d="M2601.01,1637.8c-26.44,0-53.05-1.36-79.76-4.08-5.37-.45-10.68-1.08-16.05-1.71l13.84-20.55,2.99-4.43c11.72,1.21,23.39,2.16,35,2.84,14.59.84,29.11,1.27,43.51,1.27,168.04,0,322.24-57.55,451.37-167.43,8.93,4.47,18.27,8.25,27.99,11.33-24.35,21.49-49.51,41.03-75.24,58.67-1.64,1.13-3.28,2.28-4.93,3.35-121.73,81.81-257.89,120.73-398.71,120.73"/>
        <path id="path61" class="cls-3" d="M2666.84,1425.8c-1.69,0-3.37-.01-5.08-.04-5.39-.07-10.39-1.73-14.55-4.55l14.91-22.12c1.53.03,3.08.04,4.61.04,69.23,0,134.37-20.77,192.57-55.23,24.47-14.41,47.73-31.29,69.55-50.01,3.41,8.72,7.05,17.2,10.93,25.43-9.4,7.85-19.09,15.43-29.07,22.67-66.15,47.96-144.76,81.01-232.6,83.64-3.73.11-7.51.17-11.28.17"/>
        <path id="path62" class="cls-15" d="M1433.29,2411.33c-138.01-2.92-270.95-15.87-392.99-37.91,27.91-2.73,55.47-8.77,81.87-17.99,92.53,20.23,196.49,38.83,311.12,55.89M829.69,2322.91c-12.03-3.71-23.87-7.53-35.51-11.45,3.93-2.12,7.84-4.33,11.71-6.63,7.68,6.49,15.6,12.51,23.8,18.08"/>
        <path id="path63" class="cls-3" d="M1573.75,2430.83c-10.68-.51-21.24-1.08-31.68-1.65-196.32-10.91-363.67-30.05-505.97-55.35,1.4-.12,2.83-.25,4.21-.4,122.04,22.04,254.97,34.99,392.99,37.91,45.16,6.73,92.03,13.23,140.45,19.49M844.92,2332.56c-20.52-5.32-40.49-10.84-59.67-16.45,2.99-1.51,5.97-3.05,8.93-4.65,11.64,3.92,23.48,7.75,35.51,11.45,4.99,3.39,10.07,6.61,15.23,9.65"/>
        <path id="path64" class="cls-15" d="M342.89,2068.39c-103.81-125.08-94.96-254.08-70.88-337.84,34.03-25.59,72.69-50.04,115.56-73.19,20.17-10.92,41.27-21.53,63.24-31.84,19.92,25.16,40.64,49.61,62.13,73.31-48.73,45.03-90.97,104.97-121.75,173.63-29.16,65.05-45.64,132.59-48.31,195.93"/>
        <path id="path65" class="cls-1" d="M272.01,1730.55c5.48-19.03,11.75-35.72,17.64-49.51,43.6-25.88,92.8-50.49,147.19-73.47,4.61,6.03,9.28,12.01,13.97,17.95-21.97,10.31-43.07,20.92-63.24,31.84-42.87,23.15-81.53,47.6-115.56,73.19"/>
        <path id="path66" class="cls-3" d="M289.65,1681.04c11.69-27.32,21.99-43.21,21.99-43.21,33.73-18.25,70.04-35.68,108.72-52.19,5.44,7.39,10.91,14.67,16.48,21.93-54.39,22.97-103.59,47.59-147.19,73.47"/>
        <path id="path67" class="cls-3" d="M512.95,1698.83c-21.49-23.69-42.21-48.15-62.13-73.31-4.69-5.93-9.36-11.92-13.97-17.95-5.57-7.27-11.04-14.55-16.48-21.93,8.23-3.51,16.56-6.97,25-10.4,27.16,37.96,55.79,73.83,85.92,107.6-6.2,5.09-12.32,10.43-18.33,15.99"/>
        <path id="path68" class="cls-12" d="M466.03,2291.87c-109.69-49.23-134.17-232.93-54.64-410.36,75.73-168.87,218.32-271.23,326.59-238.25,5.47,1.65,10.87,3.67,16.19,6.04,2.16.87,4.32,1.73,6.48,2.67,426.92,174.27,158.15,842.89-294.61,639.91"/>
        <path id="path69" class="cls-13" d="M631.89,2307.59c-9.87,0-19.81-.47-29.85-1.37,18.83-7.55,37.84-17.76,56.77-30.59,26.15-17.72,51.05-39.71,74.05-65.16,11.44,23.19,25.07,43.77,40.48,61.88-43.56,23.44-91.31,35.24-141.45,35.24M524.68,2286.09c-5.49,0-10.89-.32-16.2-.97-11.09-3.96-22.23-8.44-33.4-13.44-27.47-12.33-48.79-34.56-63.64-63.79,18.8,5.24,37.25,8.97,55.23,11.31l-14.53,30.85,33.33,20.8,23-48.69c1.19.01,2.4.01,3.57.01,77.01,0,144.55-26.19,198.92-68.57,1.97,6.79,4.11,13.45,6.39,19.92-24.11,28.8-50.65,53.29-78.72,72.32-39.35,26.65-78.37,40.25-113.95,40.25M872.29,1887.24c2.16-28.71,1.52-56.65-2.03-83.24-3.45-26.03-9.56-49.81-18.09-71.05,41.56,36.32,71.16,81.65,87.17,134.01-23.53,5.29-46,12.13-67.05,20.28"/>
        <path id="path70" class="cls-25" d="M508.47,2222.16c-13.65-.15-27.59-1.12-41.8-2.96l251.36-533.69h0l10.39-22.01c5.72,1.57,11.29,3.56,16.69,5.99.33.15.68.29,1.01.43,8.95,3.49,17.63,7.23,26.05,11.21,6.36,5.03,12.29,10.72,17.81,17.05-.73-.29-1.47-.57-2.2-.87l-.27-.12c-3.71-1.65-7.57-2.44-11.39-2.44-10.97,0-21.55,6.45-26.52,16.99l-241.15,510.43"/>
        <path id="path71" class="cls-9" d="M485.47,2270.85l-33.33-20.8,14.53-30.85c14.21,1.84,28.15,2.81,41.8,2.96l-23,48.69"/>
        <path id="path72" class="cls-25" d="M401.69,2185.16c-27.21-75.93-18.65-186.32,29.89-294.6,36.81-82.12,90.89-150.25,152.27-191.84,38.64-26.19,76.88-39.55,111.64-39.55,11.39,0,22.4,1.43,32.92,4.32l-10.39,22.01c-98.11,6.83-209.32,101.85-273.01,244.01-40.19,89.65-53.83,180.93-43.32,255.64"/>
        <path id="path73" class="cls-3" d="M475.08,2271.68c122.88,55.08,242.52,46.56,336.87-24.01,99.45-74.4,154.96-207.61,138.13-331.49-15.43-113.51-87.87-200.96-203.96-246.27-.33-.13-.68-.28-1.01-.43-45.83-20.55-103.09-10.17-161.25,29.24-61.37,41.59-115.45,109.72-152.27,191.84-74.41,165.97-54.89,336.95,43.49,381.12M632.25,2352.07c-56.59,0-115.68-13.28-175.28-40h0c-60.32-27.08-99.79-89-111.16-174.39-10.85-81.52,5.27-175.72,45.39-265.23,40.13-89.52,99.73-164.24,167.83-210.37,71.13-48.2,143.44-59.99,203.68-33.2,131.44,51.47,213.56,151.36,231.23,281.33,18.93,139.31-43.55,289.16-155.48,372.88-61.31,45.87-131.57,68.97-206.2,68.97"/>
        <path id="path74" class="cls-3" d="M524.69,2322.15c-23.12,0-45.31-4.6-66.01-13.88-9.07-4.07-13.12-14.72-9.07-23.79,4.07-9.07,14.71-13.13,23.79-9.05,47.17,21.15,105.84,10.64,165.23-29.59,62-42.01,116.59-110.75,153.72-193.56,37.12-82.81,52.13-169.29,42.25-243.53-9.47-71.09-40.65-121.89-87.83-143.04-9.07-4.07-13.12-14.72-9.05-23.79,4.07-9.08,14.71-13.15,23.79-9.05,58.96,26.44,97.59,87.21,108.76,171.13,10.76,80.77-5.25,174.17-45.08,263-39.83,88.83-98.91,162.92-166.37,208.63-45.48,30.81-91.39,46.51-134.12,46.52"/>
        <path id="path75" class="cls-3" d="M439.76,2294.27c-2.57,0-5.17-.55-7.65-1.72-9-4.24-12.85-14.96-8.61-23.95l298.32-632.89c4.23-8.99,14.93-12.87,23.95-8.6,8.99,4.23,12.84,14.95,8.6,23.95l-298.31,632.88c-3.07,6.52-9.55,10.33-16.29,10.33"/>
        <path id="path76" class="cls-12" d="M698.35,2092.65c-14-106.35,114-210.96,285.96-233.68,163.68-21.6,308.17,38.72,333.85,136.35,1.31,4.93,2.31,9.97,2.99,15.13.36,2.04.72,4.09,1.01,6.16,67.65,405.75-565.87,514.85-623.81,76.04"/>
        <path id="path77" class="cls-3" d="M1324.55,2117.15c.23-1.8.45-3.61.65-5.43,1.27-11.04,1.95-22.41,2.01-34.07h0c-.08,13.59-.99,26.75-2.67,39.49"/>
        <path id="path78" class="cls-21" d="M1327.21,2074.33h0c-.03-5.48-.19-11.07-.49-16.68h0c.31,5.61.47,11.19.49,16.68"/>
        <path id="path80" class="cls-13" d="M698.35,2092.65h0c-2.64-20.01-.25-39.93,6.51-59.27-6.75,19.35-9.13,39.28-6.51,59.27h0"/>
        <path id="path81" class="cls-13" d="M1006.13,2375.11c-141.56,0-281.92-86.71-307.79-282.45h0c-2.63-19.99-.24-39.92,6.51-59.27,2.4-6.84,5.33-13.6,8.8-20.27-5.81,11.23-10.15,22.75-12.88,34.43,9.11-14.33,20.63-28.11,34.25-41.09,5.11,18.79,11.41,36.32,18.79,52.65l-30.23,3.41-.19,35.04,47.75-5.33c58.52,97.13,159.28,141.6,260.65,141.6,106.67,0,214-49.23,273.59-138.16,3.6,44.05-1.28,84.24-12.83,120.17-55.96,102.2-171.6,159.27-286.43,159.27M1325.2,2111.72c1.96-17.27,2.52-35.29,1.51-54.04.01-.01.01-.03.01-.04.31,5.63.47,11.21.49,16.69v3.32c-.07,11.65-.75,23.03-2.01,34.07"/>
        <path id="path82" class="cls-24" d="M1292.55,2215.89s0-.03.01-.04c6.44-11.77,12.09-24.15,16.87-37.11t.03.01c-4.79,12.97-10.45,25.35-16.91,37.13"/>
        <path id="path83" class="cls-20" d="M1309.45,2178.76s-.01-.01-.03-.01c.49-1.32.97-2.67,1.44-4h0c.05-.17.09-.28.15-.44.01-.01.03-.05.03-.08.04-.11.09-.24.13-.35.01-.04.04-.12.05-.16.03-.09.07-.21.11-.31.03-.07.04-.12.07-.2s.07-.19.09-.25c.03-.09.05-.17.08-.27.03-.08.05-.15.08-.21.03-.09.07-.2.09-.29.03-.07.05-.13.07-.2.04-.09.08-.23.11-.32.03-.05.04-.11.07-.17.04-.12.08-.24.12-.37.01-.04.03-.07.04-.09.05-.16.09-.31.15-.45,0-.01.01-.03.01-.05,4.53-13.6,8.11-27.83,10.61-42.63h.01c-3.01,17.83-7.57,34.79-13.48,50.87"/>
        <path id="path84" class="cls-2" d="M1322.93,2127.89h-.01c.6-3.56,1.15-7.12,1.63-10.75-.48,3.61-1.01,7.2-1.61,10.75"/>
        <path id="path85" class="cls-6" d="M1321.15,2010.45c-.04-.32-.08-.65-.13-.97.05.32.09.65.13.97"/>
        <path id="path86" class="cls-25" d="M1292.56,2215.85h0c7.11-12.99,13.25-26.69,18.31-41.11-.47,1.33-.95,2.68-1.44,4-4.77,12.96-10.43,25.33-16.87,37.11M1310.87,2174.73c.05-.16.09-.27.15-.43-.05.16-.09.27-.15.43M1311.04,2174.23c.05-.12.08-.21.13-.35-.04.11-.09.24-.13.35M1311.23,2173.72c.04-.11.07-.19.11-.31-.04.09-.08.21-.11.31M1311.4,2173.21c.03-.07.07-.19.09-.25-.03.07-.07.17-.09.25M1311.57,2172.69c.03-.07.05-.15.08-.21-.03.07-.05.13-.08.21M1311.75,2172.19c.03-.08.04-.12.07-.2-.01.07-.04.13-.07.2M1311.92,2171.67c.03-.05.04-.11.07-.17-.03.07-.04.12-.07.17M1312.11,2171.12s.03-.07.04-.09c-.01.03-.03.05-.04.09M1312.29,2170.57s.01-.03.01-.05c0,.03-.01.04-.01.05M1305.39,2095.67c-.99-12.11-2.63-24.52-4.95-37.2l-.03-.27c-1.71-12.89-13.08-22.12-25.84-22.12-.99,0-1.97.05-2.96.16l-500.47,55.99c-6.28-10.44-12.08-21.47-17.33-33.12l522.92-59.13h0l41.43-4.65h0c.01.15.08.25.09.4.44,1.69.84,3.33,1.13,5.03.68,2.85,1.21,5.79,1.63,8.73.05.32.09.65.13.97h0c.36,2.04.72,4.09,1.01,6.16h0c2.33,14.05,3.84,27.73,4.55,41.07-6.16,13.36-13.31,26.04-21.32,37.99"/>
        <path id="path87" class="cls-11" d="M1310.87,2174.75h0s0,0,0,0M1311.01,2174.31s.03-.05.03-.08c0,.03-.01.07-.03.08M1311.17,2173.88c.01-.05.03-.09.05-.16-.01.04-.04.12-.05.16M1311.33,2173.41c.03-.07.04-.12.07-.2-.03.08-.04.13-.07.2M1311.49,2172.96c.03-.11.05-.17.08-.27-.03.09-.05.17-.08.27M1311.65,2172.48c.03-.11.07-.2.09-.29-.03.09-.07.2-.09.29M1311.81,2171.99c.04-.11.07-.2.11-.32-.03.09-.07.23-.11.32M1311.99,2171.49c.04-.11.08-.25.12-.37-.04.13-.08.25-.12.37M1312.15,2171.03c.04-.15.11-.32.15-.45-.05.15-.09.29-.15.45M1312.31,2170.52c4.53-13.6,8.11-27.83,10.61-42.64h0c-2.51,14.81-6.08,29.04-10.61,42.64"/>
        <path id="path88" class="cls-2" d="M1322.92,2127.89h0c.91-5.33,1.67-10.69,2.28-16.17-.2,1.81-.43,3.63-.65,5.43-.48,3.63-1.03,7.19-1.63,10.75"/>
        <path id="path89" class="cls-9" d="M1292.56,2215.84c11.55-35.93,16.43-76.12,12.83-120.17,8.01-11.95,15.16-24.63,21.32-37.99,1.01,18.75.45,36.77-1.51,54.04-.61,5.48-1.37,10.84-2.28,16.16-2.51,14.81-6.08,29.04-10.61,42.64,0,.03-.01.04-.01.05-.04.13-.11.31-.15.45-.01.03-.03.07-.04.09-.04.12-.08.27-.12.37-.03.07-.04.12-.07.17-.04.12-.07.21-.11.32-.03.08-.04.12-.07.2-.03.09-.07.19-.09.29-.03.07-.05.15-.08.21-.03.09-.05.16-.08.27-.03.07-.07.19-.09.25-.03.08-.04.13-.07.2-.04.12-.07.2-.11.31-.03.07-.04.11-.05.16-.05.13-.08.23-.13.35,0,.03-.01.07-.03.08-.05.16-.09.27-.15.43h0c-5.05,14.43-11.2,28.13-18.31,41.11M723.4,2097.56l.19-35.04,30.23-3.41c5.25,11.65,11.05,22.68,17.33,33.12l-47.75,5.33"/>
        <path id="path90" class="cls-25" d="M731.8,1984.84c23.95-31.03,59.32-58.91,102.72-80.83h0c-43.4,21.95-78.76,49.8-102.72,80.83"/>
        <path id="path91" class="cls-9" d="M872.29,1887.27v-.03c21.05-8.15,43.52-14.99,67.05-20.28h0c-23.55,5.29-45.99,12.15-67.05,20.31"/>
        <path id="path92" class="cls-6" d="M983.24,1859.12h0c.36-.05.72-.09,1.07-.15-.35.05-.71.09-1.07.15"/>
        <path id="path93" class="cls-2" d="M939.35,1866.96h0c14.25-3.2,28.89-5.83,43.89-7.84h0c-14.99,2.01-29.64,4.64-43.89,7.84"/>
        <path id="path94" class="cls-2" d="M834.52,1904.03h0c12.01-6.08,24.61-11.68,37.77-16.79v.03c-13.15,5.09-25.77,10.71-37.77,16.76"/>
        <path id="path95" class="cls-25" d="M713.65,2013.12c5-9.67,11.07-19.09,18.15-28.28,23.96-31.03,59.32-58.88,102.72-80.81,12-6.05,24.63-11.67,37.77-16.76,21.07-8.16,43.51-15.01,67.05-20.31,14.25-3.2,28.91-5.83,43.89-7.84.36-.05.72-.09,1.07-.15h0c22.41-2.96,44.48-4.37,65.92-4.37,135.12,0,245.77,56.45,267.93,140.72l-41.43,4.65c-42.81-59.68-136.87-97.39-247.19-97.39-21.45,0-43.52,1.43-65.95,4.4-95.21,12.59-176.97,50.28-228.57,99.47-1.73-6.35-3.33-12.85-4.77-19.49-6.43,8.51-11.97,17.25-16.6,26.16"/>
        <path id="path96" class="cls-9" d="M700.77,2047.55c2.73-11.68,7.07-23.2,12.88-34.43,4.63-8.91,10.17-17.65,16.6-26.16,1.44,6.64,3.04,13.15,4.77,19.49-13.63,12.99-25.15,26.76-34.25,41.09"/>
        <path id="path97" class="cls-3" d="M720.28,2089.76c15.61,118.2,77.6,204.35,174.52,242.59,102.28,40.36,228.45,20.27,313.97-50,78.25-64.31,110.43-159.45,90.61-267.92-.07-.36-.12-.72-.17-1.08-5.75-43.57-39.96-81.52-96.33-106.87-59.92-26.95-136.51-36.03-215.67-25.57-156.87,20.72-279.11,116.37-266.93,208.85h0ZM1005.75,2397.05c-43.61,0-87.01-7.68-127.19-23.53-112.55-44.41-184.33-143.12-202.15-277.97h0c-15.84-120.28,118.13-233.83,305-258.51,87.2-11.53,172.29-1.2,239.61,29.08,70.67,31.76,113.97,81.79,121.99,140.88,22.64,124.77-15.05,234.68-106.15,309.53-63.99,52.59-147.95,80.52-231.12,80.52"/>
        <path id="path98" class="cls-3" d="M969.05,2264.55c-61.44,0-119.49-11.29-168.08-33.13-68.88-30.97-110.97-79.51-118.52-136.67-1.16-8.79,5.03-16.85,13.81-18.01,8.75-1.15,16.85,5.03,18.01,13.81,6.04,45.72,41.49,85.35,99.85,111.59,60.93,27.39,138.68,36.64,218.95,26.05,162.92-21.51,285.01-118.25,272.16-215.65-1.16-8.8,5.01-16.87,13.81-18.03,8.76-1.16,16.85,5.03,18.01,13.83,15.17,114.95-119.31,227.85-299.79,251.68-22.99,3.04-45.84,4.53-68.23,4.53"/>
        <path id="path99" class="cls-3" d="M697.88,2081.47c-8.07,0-15.01-6.05-15.93-14.25-1-8.81,5.33-16.76,14.15-17.75l620.21-69.95c8.83-1.03,16.76,5.35,17.76,14.15.99,8.81-5.35,16.76-14.16,17.76l-620.21,69.93c-.61.08-1.21.11-1.81.11"/>
      </g>
    </g>
  </g>
</svg>