<?xml version="1.0" encoding="UTF-8"?>
<svg id="Layer_2" data-name="Layer 2" xmlns="http://www.w3.org/2000/svg" viewBox="0 0 605.9 675.74">
  <g id="Layer_1-2" data-name="Layer 1">
    <path d="M210.25,551.46c-29.83,18.28-59.51,36.51-89.2,54.71-38.45,23.41-76.18,46.35-113.92,69.29-.45.28-1.12.2-1.66.28-2.21-1.67-1.46-4.04-1.46-6.09-.02-77.98-.02-155.93.02-233.91,0-8.1,1.44-9.1,7.79-5.29,64.54,38.79,129.07,77.61,193.59,116.43,1.7,1.02,3.3,2.11,4.84,4.58Z"/>
    <path d="M396.26,122.59c32.82-21.09,65.61-42.23,98.43-63.34,29.56-19.02,58.36-37.6,87.19-56.16,1.48-.96,3.04-1.82,4.64-2.57,2.67-1.26,4.21-.18,4.52,2.61.22,1.77.14,3.56.14,5.33,0,77.74,0,155.46-.06,233.17,0,2.69.69,5.56-1.08,8.15-2.87.97-4.85-1.1-6.92-2.31-62.25-36.39-124.47-72.84-186.68-109.29-11.34-6.65-11.32-8.42-.18-15.59Z"/>
    <path d="M605.11,530.29c-2.87,31.49-12.59,61.16-26.55,89.43-.7,1.37-1.68,2.61-2.49,3.84-2.08-.5-1.8-2.19-2.16-3.39-11.08-37.44-34.73-65.14-66-87.09-19.86-13.92-42.05-23.23-63.82-33.36-76.22-35.52-152.48-70.97-228.7-106.54-30.53-14.24-61.6-27.33-91.24-43.38-30.13-16.31-58.06-35.79-81.14-61.66C13.67,255.28-.61,216.74.02,172.5c.48-31.91,8.18-61.88,23.06-90.01.95-1.81,1.56-4.42,4.3-4.32,2.79.12,3.26,2.69,3.82,4.7,6.87,24.66,23.39,42.29,41.94,58.34,24.8,21.45,53.92,35.43,83.35,48.9,41.55,19.02,83,38.22,124.51,57.34,67.83,31.41,135.47,61.04,201.84,93.49,37.71,18.42,70.23,43.36,94.33,78.81,22.84,33.6,31.55,70.57,27.94,110.54Z"/>
  </g>
</svg>